<svg xmlns="http://www.w3.org/2000/svg" viewBox="0 0 1080 378.7" alt="the lincoln hotel logo"><path d="M0 68.4h54.4c.3 11.5.1 22.7.1 33.9v168.5c4.6.2 9 .1 13.4.1h40.4v54.2c-1.5.5-3 .3-4.4.3H4.2c-1.4 0-2.9 0-4.3.1.1-85.7.1-171.4.1-257.1zm80 231.8H29.1L8 321.3c3.6.6 90.7.4 93-.2-6.8-6.7-13.6-13.6-21-20.9zM7 72.5c6.8 7.6 18.2 18.7 19.9 19.7C33.7 85.5 40.3 79 47 72.5H7zM4 179.4c4.6 5.4 19 19.5 21.2 20.7v-10.7C17.9 182.1 11 175.2 4 168.3v11.1zM25.2 235c-5.9-6.8-19.1-19.6-21.2-20.6v10.4c7.5 7.5 14.4 14.4 21.2 21.1V235zm0-65.7V158C18 149.9 6 138.3 4 137.5v10.8c7.1 7.1 14.1 14 21.2 21zM4 117.8c7 6.9 13.7 14.1 21.2 21.2v-11c-7.5-7.5-14.4-14.4-21.2-21.1v10.9zm21.2 163.5c-9.4-10.2-19-19.5-21.3-20.4v11c5 5.9 19 19.5 21.3 20.7v-11.3zm0-168.7C17.7 105.1 10.8 98.2 4 91.5v9.8l21.1 21.1c.1-3.3.1-7.1.1-9.8zm0 30.1C20.4 136.9 6.3 123.1 4 122v11c3.7 4.6 18.9 19.5 21.2 20.8v-11.1zM4 229.6v11c7.2 7.1 14.3 14 21.2 20.6v-10.6c-7.1-7-13.9-13.8-21.2-21zm21.3-56C17 164.5 6.4 154.2 4 152.9v11c4.4 5.2 19.2 19.7 21.2 20.8 0-.6.1-1.2.1-1.8v-9.3zm-.1-77.1C19.7 90.1 6.2 76.9 4 76v10c7.4 7.4 14.4 14.3 21.2 21.1V96.5zM4 194.7c4.6 5.4 18.9 19.4 21.2 20.7v-11c-5.3-6.1-18.6-19-21.2-20.7v11zm21.1 82.6c.4-3.8.2-7.5.1-11.2-4.9-5.8-19.1-19.6-21.3-20.7v10.9c7.2 7.1 14.1 14 21.2 21zM4 210c5.1 6 18.9 19.5 21.2 20.6v-9.9c-7.5-7.5-14.4-14.4-21.2-21.1V210zm-.1 76.9c5.6 5.6 10.8 10.7 16 15.9 1.7-1.8 4-3.4 5.4-6-7.1-7-13.9-14.1-21.4-21.3v11.4zm0 4.8v10.9c2.7 2.8 5.3 5.4 7.7 8 2-1.9 4-3.8 5.9-5.5-4.5-4.6-9-9-13.6-13.4zm5.5 21.2c-1.7-1.9-3.5-3.8-5.5-5.8-.1 3.7-.4 7.3.2 11.1l5.3-5.3zM520.6 0c-.1 1.1-.1 2.1-.2 3.1-1.1 1.1-2.4.3-4 1-.4 10-.1 20.2-.3 30.2 1.4 1 2.7.3 3.9.9.7.8.5 1.8.1 3.2-4.2.2-8.4.2-12.6 0-.6-1.2-.6-2.1-.2-3 1.1-.8 2.4-.1 3.7-.8.5-4.3.2-8.7.2-13.3h-19.3v13.2c1.1.9 2.5.1 3.6.8.7.8.5 1.7.1 3.1-4.1.2-8.4.2-12.4 0-.8-1.1-.7-2-.4-2.9 1-1 2.4-.2 3.7-1V4c-1.1-.7-2.4 0-3.6-.7-.8-1-.2-2.3-.6-3.4H496c-.4 1.1.2 2.4-.5 3.4-1.1.7-2.5-.1-3.6.9 0 .6-.1 1.3-.1 2v11c3.6.7 16.7.6 19.4-.1.1-4.3.4-8.7 0-13-1.4-.7-2.8.1-4-.9-.1-1.1-.2-2.1-.3-3.2h13.7zm31.6 0v8.5c-1.5.9-2.7.8-3.9.5-.8-1.6 0-3.3-.7-5h-11.9v13h10.7c1.1 1.2.9 2.2.5 3.4-3.7.8-7.6-.1-11.5.5-.1 4.6.1 9.1-.4 13.9 4.5.4 8.6.1 12.7.2 1.2-1.9.4-4 1.1-5.8 1.2-.6 2.3-.4 3.7-.2.6 3.1.1 6.1-.3 9.3h-25.5c-.7-1-.6-2-.2-3 1.1-.7 2.4 0 3.7-.9V4.1c-1-.9-2.5 0-3.8-.8-.6-1-.3-2.2-.2-3.4 8.8.1 17.4.1 26 .1zm-74.1 0c-.7 3.1.4 6.2-.3 9.2-1.9.5-1.9.5-3.9 0-.1-1.6-.3-3.3-.5-5.4-3.3-.2-6.6-.2-10.1.1v30.6c1.2 1 2.9 0 4.2.9.6.9.5 1.8 0 2.9h-12.9c-.6-1.1-.4-2-.3-2.8 1.1-.8 2.3-.3 3.5-.9.8-10.1.4-20.3.6-30.8-3.5-.3-6.7-.3-9.8 0-1.1 1.7-.3 3.7-1 5.4-1.1.5-2.3.6-3.7.1-.6-3.1 0-6.3.3-9.4 11.3.1 22.6.1 33.9.1zm539.3 378.7c-.3-.6-1-.7-1.5-.9-4.6-2.1-5-9.1-1-12.1 1.1-.9 2.4-1.6 3.6-2.4-1.1-.8-2.2-1.5-3.1-2.4-3.9-3.7-2.8-9.8 2.2-11.8 3.1-1.3 6.4-1.2 9.5 0 4.6 1.8 5.8 7.3 2.4 10.9-1 1-2.2 1.8-3.3 2.8.2 1.1 1.3 1.2 2 1.7 5.8 3.8 5.6 10.3-.6 13.6l-.9.6h-9.3zm4.7-13.7c-2 .6-3.7 1.7-5 3.3-2 2.5-1.3 5.6 1.5 6.9 2.4 1.1 4.9 1.1 7.3 0 3.3-1.6 3.7-5.2.9-7.6-1.4-1.2-3-2-4.7-2.6zm.2-3.7c1.6-.8 3-1.5 4-2.6 2.3-2.5 1.4-6.2-1.9-7.2-1.5-.4-3.1-.5-4.6.1-3.3 1.1-4.1 4.7-1.7 7.2 1.2 1.2 2.6 1.8 4.2 2.5zM900 378.7c-.5-.7-.7-1.5-.4-2.4.6-1.1 2.1-.2 3.1-1.4V352c-.7-.9-1.9-.2-2.9-.9-.5-.5-.4-1.3.2-2.2h19.3c.5 2.2.2 4.3.2 6.3-.9.8-1.8.7-2.7.3-.8-1.1-.1-2.4-.8-3.7-2.9-.5-5.9-.3-9.1-.1v10h8.3c.9.9.8 1.6.6 2.5-2.8.9-5.8-.1-8.9.6v10.5c1.4.9 3.1.3 4.8.4 1.5.1 3.1 0 4.5 0 1-1.4.4-2.8.9-4 .9-1 1.9-.6 3.1-.5 0 2.6.6 5.1-.6 7.5H900zm169.9 0v-2.2c1-1.3 2.3-.4 3.3-1.4.1-1.6.4-3.3 0-5.2-4.3-.8-8.7.2-12.8-.5-.9-1.5-.3-2.7.4-3.8 4-5.6 7.9-11.1 11.8-16.6 1.4-.5 2.7-.5 4.3 0v16.9c1.1.9 2.1.6 3 .6v2.9c-.8.5-1.9 0-2.8.8-.3 1.6-.3 3.4 0 5 .9.8 2 .3 2.9.7v2.9c-3.4-.1-6.7-.1-10.1-.1zm-5.8-12.3c3.3.3 6.1.2 9.1.1v-13.2c-3.2 4.6-6 8.7-9.1 13.1zm-25.1 12.3c-1.3-.9-1.9-2.1-1.1-3.7 1.1-.2 2 .4 3.1.6 2.4.4 4.8.7 7.1-.3 2.5-1 4-3.3 4-5.9-.1-2.6-1.6-4.2-3.9-5.1-2-.8-4.2-1.1-6.3-1.3-.9-.1-1.9-.1-3.2-.2.2-4.7-.2-9.2.4-14h15c.8.8.7 1.6.3 2.7-3.7.8-7.7 0-11.7.5-.7 2.5-.6 4.9-.4 7.5 1.4.9 3.1.4 4.5.9.8.3 1.7.3 2.5.5 3.4 1.1 6.1 2.9 6.6 6.8.5 4.2-.8 7.5-4.5 9.8-.7.4-1.6.4-2.1 1.2H1039zm-111.6 0c-.6-.4-1.1-.8-1.8-1.3-.4-1.5-.2-3.2-.2-4.7.9-1 1.8-.7 2.6-.6 1.2.8.5 2.2 1.3 3.2 2 .9 4.2 1 6.5.5 1.7-.3 2.7-1.5 2.8-3.2-.3-2.1-2-2.6-3.6-3.1-1.8-.5-3.7-.9-5.5-1.5-3.2-1.1-4.3-2.8-4.1-5.9.2-2.8 1.8-4.8 4.7-5.6 3.6-1 7.1-.5 10.6.8.7 1.6.3 3.3.4 4.8-.8 1.2-1.8.6-2.5.7-1.2-.9-.6-2.2-1.3-3.3-1.2-.4-2.5-.9-4-.6-1.9.3-3.8.7-4.3 3.2.1 1.9 1.4 2.7 3 3.1 1.7.5 3.5.8 5.2 1.2 2.4.7 4.5 1.8 4.8 4.6.4 3-.5 5.4-3.3 7-.4.2-.8.5-1.1.8-3.5-.1-6.9-.1-10.2-.1zm64 0v-2.5c1.7-1 3.6-.1 5.6-.8v-22.2c-2 .4-3.6 2.1-5.3 2.7-1.1-.3-1.4-1.1-1.7-1.9.1-.2.2-.5.3-.6 3.3-1.7 6.1-4.6 10.5-4.7V375c1.1 1 2.1.7 3.1.8.9.1 1.9-.2 2.8.3.8.9.3 1.8 0 2.7-5.2-.1-10.2-.1-15.3-.1zm-39.6 0c-2.1-1.9-2.7-4.3-2.8-7.1-.1-3.9.7-7.9.2-11.6-.8-1.1-1.9-.5-2.8-1-.6-.7-.6-1.4-.2-2.2.8-.7 1.9-.2 2.9-.7.8-1.3.1-3 .7-4.6.8-.5 1.8-.7 2.9-.4 1 1.5-.2 3.3.8 5 1.8.6 3.9-.1 5.7.4.7.9.7 1.6-.1 2.7h-6c-.3 5.5-1 10.7.3 15.6 2.7 1.2 2.7 1.2 6.5.5 1 1.2.1 2.2-.3 3.3-2.5.1-5.1.1-7.8.1zm14.4 0c-.5-.8-1.3-1.5-1.2-2.5 1.8-3.4 3.3-3.5 5.4-.3.2 1.2-.6 2-1.3 2.8h-2.9zm62.8-204.2V68.4h50.1v256.7h-49.6c-14.4-34.9-28.9-70-43.3-105-.2 0-.4.1-.6.1V325h-50.2c-.4-.4-.4-.5-.5-.6-.1-.1-.2-.2-.2-.3 0-25.1-.1-50.1-.1-75.2V69.1c2.9-.8 43-1.1 48.6-.4 15 35.3 30.1 70.6 45.2 105.9.2 0 .4-.1.6-.1zm21.4 123.1c-28.9-64-57.7-127.8-86.5-191.6-.1-.3-.4-.6-.6-.9-.1-.1-.2-.2-.3-.1-.5 0 .1.5-.3.1v46.1c0 1.6.6 3 1.2 4.5 22 53.3 43.9 106.6 65.9 159.9.4.9.5 2.1 1.8 2.8 6.2-6.9 12.4-13.7 18.8-20.8zM942 72.5c6.5 6.9 12.4 13.5 18.8 20.1 5.9-6.8 11.7-13.1 17.6-20.1H942zM1053.1 301c-4.2 3.8-16.6 17.8-17.8 20 7.6.6 33 .4 35.6-.4-6-6.6-11.9-13.1-17.8-19.6zm-111.4 20h36.5c-2.1-3.4-15.3-18-17.1-19.1-6.4 6.3-12.7 12.5-19.4 19.1zm129.9-248.8h-35.4c5.9 6.9 11.6 13.5 17.4 20.3 6-6.8 11.8-13.3 18-20.3zM938.5 259.5c7.2 7.2 13.9 13.9 20.3 20.2v-9.6c-3.8-4.5-17.9-18.4-20.3-19.9v9.3zm.2-23.8v9.7c7 6.9 13.6 13.5 20.1 19.9v-9.6c-6.8-6.8-13.3-13.2-20.1-20zm20.1-67.7c-3.3-3.3-6.6-6.4-9.8-9.6-3.3-3.2-6.5-6.5-10.2-10.2v11c4.4 5.2 17.7 18.2 20 19.6V168zm-20.1-24.1c7.2 7.1 13.7 13.6 20.1 20v-9.4c-7-7-13.5-13.4-19.9-19.9-.4 3.2-.2 6.6-.2 9.3zm20.1 92.8v-9.9c-6.9-6.8-13.4-13.2-19.9-19.6v9.7c6.8 6.7 13.2 13.2 19.9 19.8zm0 5-20-20c-.2 3.2-.2 6.7 0 9.5 6.8 7 13 13.4 19.3 19.8.1.1.2 0 .3 0 .1 0 .2 0 .4-.1v-9.2zm-20-127c7.1 7.1 13.6 13.6 20 19.9v-9.8c-5.4-6.4-17.6-18.3-20-19.4v9.3zm0 14.5c7.1 7.1 13.6 13.5 19.9 19.8v-9.7c-4.3-5.2-17.6-18.1-19.9-19.4v9.3zm.1-28.6c7 6.9 13.5 13.3 19.9 19.6v-9.8c-6.8-6.7-13.4-13.1-19.9-19.4v9.6zm-.4 174.4c4.3 5.1 18 18.5 20.3 19.9v-10.3c-4.8-5.6-17.9-18.4-20.3-19.8V275zm20.3-169.4v-9c-7.4-8.8-17.5-19.3-19.9-20.7v9.9c7 7 13.5 13.5 19.9 19.8zm-20 82.7c6.2 7 17.8 18.3 19.9 19.3v-10.4l-19.9-19.9v11zm.1 13.8c7 6.9 13.5 13.4 19.9 19.8v-9.1c-7-7-13.6-13.5-19.9-19.9v9.2zm-.1-29.1c7.1 7.1 13.6 13.5 20 19.9.1-3.2.2-6.7-.1-10-7.3-8.1-17.5-18-19.9-19.2v9.3zm94.4-76.1c6.5 6.4 12.4 12.4 18.3 18.2v-8.9c-6.5-6.5-12.5-12.4-18.3-18.2v8.9zm18.2 76.8v-9.6c-6.5-6.5-12.5-12.4-18.2-18.1v9.6c6.2 6.1 12 11.9 18.2 18.1zm0-39.5c-6.2-5.9-12.3-11.7-18.2-17.3v9.7c6.2 6 12.3 11.8 18.2 17.5v-9.9zm-18.2-32.4v9.8c6.4 6.4 12.4 12.3 18.2 18.1V120l-18.2-18.2zm-.1 82.5c6.3 6.3 12.2 12.3 18.3 18.4v-9.6l-18.2-18.2c-.4 3-.2 6.4-.1 9.4zM958 298.5c-3.1-4.2-17.2-17.9-19.4-18.9-.2 3.4-.2 6.7 0 9.9 3.3 4.1 12.2 12.7 14.2 13.9 1.7-1.7 3.4-3.3 5.2-4.9zm75.1-157.4c5.5 6.3 15.9 16.4 18.3 17.8V149c-4.5-5.4-15.9-16.4-18.3-17.7-.2 3.3-.1 6.7 0 9.8zm.1 19.4c-.3 3-.2 6.4 0 9.7 6 6.9 16 16.5 18.2 17.6v-9.1l-18.2-18.2zm2.1 30.3c2.2 5.1 4.4 9.5 5.9 14.2 1.8 5.4 6.1 8.6 10.2 12.8v-11c-5.3-5.3-10.5-10.4-16.1-16zM938.7 294v10.9c2.4 2.7 4.1 4.7 5.7 6.5 2.1-2.1 4.1-4.1 5.9-5.8-3.7-3.8-7.6-7.6-11.6-11.6zm112.7-197.8c-5.8-6.8-11.8-13.8-18.2-21.3v7.6c6.4 6.4 12.4 12.3 18.2 18.2v-4.5zM942.9 313.5c-1.3-1.5-2.5-3-4.4-4.1 0 2.9-.5 5.4.2 7.7 1.5-1.2 2.8-2.4 4.2-3.6zm103.8-97.1c-.1.1-.3.2-.4.3 1.5 3.4 3 6.9 4.7 11 .4-2.7.3-4.7.2-6.8-1.4-1.5-3-3-4.5-4.5zM347.3 325.3c-14.5-35.2-29-70.2-43.4-105.3-.2.1-.5.1-.7.2v105h-50.1c-.8-2.9-.8-251.7-.1-256.3 2.7-.5 42.5-.7 48-.2 15.1 35.4 30.3 71 45.5 106.5.2-.1.4-.1.6-.2V69c2.9-1 45.1-1.2 50.1-.3v256c-3.2.9-32.2 1.2-49.9.6zm1.7-6.3c6.6-7.3 12.9-14.3 19.2-21.3-29.1-64.4-58-128.4-87.1-192.8-.8 1.7-.5 2.9-.5 4.1v41c0 2.2.4 4.2 1.3 6.3 12.9 31.2 25.8 62.5 38.7 93.7 9.3 22.8 18.7 45.6 28.4 69zm40.4-246.6h-35.5c5.9 6.9 11.5 13.5 17.4 20.3 6.1-6.8 11.9-13.4 18.1-20.3zm-93 248.7c-6.1-6.8-11.8-13.2-17.1-19.1-6.7 6.5-13.1 12.7-19.7 19.1h36.8zm74.3-20.1c-6.1 6.8-12 13.3-18.1 20 5.3.7 33.3.5 36-.2-5.9-6.6-11.7-13-17.9-19.8zM278.3 92.6c5.2-4.9 16-17.5 17.2-19.9h-35.7c6.4 6.8 12.4 13.3 18.5 19.9zm-21.9 153.7c4.4 5.2 17.7 18.2 20 19.6v-10.7c-3.3-3.3-6.6-6.5-9.8-9.7-3.3-3.2-6.5-6.5-10.2-10.1v10.9zm.2-87.6c7 7 13.5 13.5 19.9 19.8.2-3.2.2-6.8 0-9.2l-19.9-19.9v9.3zm0-14.8c7.1 7.1 13.6 13.5 19.8 19.7v-9.2c-7-7-13.4-13.4-19.8-19.7v9.2zm-.2 87.4c6.8 6.8 13.4 13.3 20 19.9.3-3.3.2-6.8 0-10.5l-20-20v10.6zm20.1 38.8c-7.6-8.5-17.9-18.4-20.1-19.4v9.6c6.9 6.9 13.5 13.4 19.9 19.9.5-3.2.2-6.6.2-10.1zm0-62.3v-9.4l-19.9-19.9v9.4c6.6 6.7 13.1 13.2 19.9 19.9zm-.1-24.9c-9-9.8-17.7-18.1-20-19.2v9.3c7.1 7.1 13.6 13.6 20 19.9v-10zm-19.9-82.5c7.1 7 13.5 13.5 19.9 19.9.2-3.2.2-6.8 0-10.1-8.2-9-17.5-18-19.9-19.2v9.4zm19.9 184.2c-4.9-5.9-17.7-18.3-20-19.3v9.3c7.1 7.1 13.6 13.6 20 19.9v-9.9zm0-159.7c-7-8-17.6-18.3-19.9-19.3v9.7c6.9 6.9 13.4 13.3 19.9 19.8v-10.2zm-19.9-39.1c7.1 7 13.6 13.5 19.9 19.8v-9.1c-8.4-9.8-17.8-19.5-19.9-20.6v9.9zm0 131.5c6.4 6.5 12.8 13.2 19.9 19.9v-10.7c-6.8-6.7-13.3-13.1-19.9-19.6v10.4zm.1-97.3v10.3c5.5 6.2 17.4 17.9 19.8 19.3.2-3.5.2-7 0-9.9-6.8-6.8-13.3-13.2-19.8-19.7zm19.8 91.6c-3.3-3.2-6.5-6.4-9.8-9.6-3.3-3.2-6.5-6.6-10.2-10.1v9.8c7.2 7.2 13.7 13.6 19.9 19.9.1-2.9.1-6.2.1-10zm74.5-85.3c6.6 6.5 12.5 12.4 18.3 18.1v-9c-6.6-6.6-12.6-12.5-18.3-18.3v9.2zm18.3 22.8c-4.5-5.4-15.8-16.4-18.3-17.9v10.1c6 6.1 11.8 12 17.6 17.9.1.1.2.1.3.1.5-.1-.2-.4.3-.1.1-3.5.1-6.8.1-10.1zm.1-29c-6.1-6.2-11.9-12.1-17.7-18-.1-.1-.2-.1-.3-.1h-.4v9.4c6.5 6.5 12.6 12.5 18.4 18.3v-9.6zM351 145.7v9.6c6.4 6.3 12.4 12.2 18.2 18v-9.9c-5.9-6-11.7-11.8-17.4-17.6-.1-.2-.4-.1-.8-.1zm18.2 32.9c-6.5-6.5-12.4-12.3-18.2-18.1v9.2c6.3 6.2 12.3 12.2 18.2 18.1v-9.2zm-18.3 6.2c5.6 6.4 16 16.5 18.3 17.8v-10.3c-5.9-6.7-16-16.5-18.3-17.8v10.3zm18.3-79.4c-4.2-5-16.1-16.6-18.3-17.8v9.5c6.5 6.4 12.5 12.4 18.3 18.2v-9.9zm-93.6 192.8c-6.3-7.1-16.9-17.4-19.1-18.5v9.9l14.1 14.1c1.5-1.7 3.2-3.5 5-5.5zm93.5-90.7c-5.4-5.4-10.5-10.4-15.5-15.4-.2.5.5 1.2.8 1.9 1.6 3.9 3.5 7.6 4.8 11.6 1.8 5.2 6 8.1 9.9 12.1v-10.2zM350.9 83.7c3 2.9 6 5.8 9 8.8 3 3 6 6 9.3 9.2.4-2 .3-3.6.1-5C362.8 88 353 77.1 350.9 76v7.7zm-88.6 227.9c2.2-2 4.3-4 6.6-6.2-2.1-2-4.1-3.9-6.1-5.8s-3.7-4.2-6.3-5.8v11.5c2.1 2.4 4 4.4 5.8 6.3zm106.4-84.1h.5V222c-1.9-2-3.3-3.4-5-5.1 1.6 3.8 3 7.2 4.5 10.6zm-112.2 90.3c1.8-1.6 3.1-2.7 4.1-4.3-1.3-1.4-2.4-2.7-4.1-3.9v8.2zm486.1-121.6v61.9c0 19.2-6.6 35.9-20.3 49.2-19 18.4-41.9 24.6-67.3 17.1-25.7-7.5-41.5-25.3-47.9-51.3-1.2-4.9-1.6-9.9-1.6-15V133.5c0-32.5 21.3-59.6 52.7-66.9 36.5-8.5 72.5 12.6 82.2 49.1 1.6 6.1 2.2 12.3 2.2 18.5v62zm-82.5-.7c0 21.2-.1 42.5 0 63.7 0 10.4 5.8 15.5 16 14.7 4.2-.4 7.2-2.4 9.3-5.9 1.1-1.9 1.8-3.9 2.2-6.1.6-3 .6-5.9.6-8.9-.1-39.2-.1-78.4-.1-117.7 0-3.6-.4-7.2-1.9-10.5-2.1-4.7-5.6-7.5-10.7-7.8-5.2-.3-9.7 1.4-12.6 6-2 3.1-2.8 6.5-2.7 10.3-.1 20.7-.1 41.4-.1 62.2zm-15.3 94.9c-5.1 5.1-10.1 10.2-15.1 15.5 14.9 13.3 31.9 19.1 51.3 17.3 13.8-1.3 32.4-10.3 37.1-17.8-5-4.7-10-9.5-15.1-14.3-19.3 14.2-38.8 14.1-58.2-.7zm17-172.9c3.5-2.7 7.7-4.4 12.4-4.4s8.8 1.9 12.7 4.6c4.5-4.7 8.8-9.3 13.2-13.8-15.7-13.5-40.7-13.8-52.6-.5 4.7 4.6 9.3 9.2 14.3 14.1zm-52.5 140.8c-.3 3.2.3 6.2.6 9.3.1 1.3.3 2.6 1.1 4.2 3.7 3.7 7.7 7.6 11.7 11.6l11.9 11.9c2.2-2.3 4-4.3 5.8-6.2-3.5-4.3-28.8-29.3-31.1-30.8zm27.8 23.6c-3.9-7.3-4.7-9.6-6-17.6-4.3-5-19.5-20-21.8-21.3v11.3c9.3 9.1 18.4 18.2 27.8 27.6zm55-63.3v10.9c3.9 4.7 19 19.5 21.4 20.9v-10.5c-7.5-7.4-14.5-14.3-21.4-21.3zm0-83c7.6 7.6 14.6 14.5 21.3 21.2V146c-7.7-7.6-15.2-15.1-22.9-22.6.8 4.3 1.8 8.6 1.6 12.2zm-82.8 9.9c8.2 9 18.9 19.5 21.4 20.9V155c-6.7-7.5-19.1-19.6-21.4-20.8v11.3zm104 16.8-21.1-21.1v10.4l21.1 21.1v-10.4zm.2 92.4c-7-7.8-19.1-19.6-21.4-20.9v10.4c7.5 7.5 14.5 14.4 21.3 21.2.5-3.2 0-6.9.1-10.7zm-.1-61.1c-7.6-7.6-14.5-14.5-21.3-21.2v10.8c5.8 6.6 19 19.4 21.3 20.7v-10.3zm-82.7-22.9c-7.1-7.1-13.9-14-20.7-20.9-.1-.1-.2-.1-.3-.1-.1 0-.2 0-.4.1v11.3c5.9 6.7 19 19.4 21.4 20.8v-11.2zm-.1 57.5v-10.5c-7.5-7.4-14.4-14.4-21.2-21.2V207l21.2 21.2zm-21.3 10.6c7.4 8.1 18.9 19.4 21.3 20.8V249c-7.5-7.5-14.5-14.4-21.3-21.3v11.1zm82.8-36.1v10.8c7.4 7.4 14.4 14.4 21.3 21.2v-10.8c-7.2-7.2-14.2-14.1-21.3-21.2zm-.1-4.2c.2-.1.4-.3.6-.4 7 7 14 14 20.9 20.7V208c-6.6-7.4-18.7-19.2-21.4-20.8v8.4c-.1 1-.1 1.9-.1 2.9zm-61.4 34.1c-6.4-7.3-19-19.5-21.3-20.7v10.3c7.5 7.4 14.5 14.4 21.3 21.2v-10.8zm61.6-75.7v10.6c3.8 4.6 18.9 19.4 21.1 20.7V178l-21.1-21.1zm-82.9 35c7.1 7.9 19 19.5 21.4 20.8v-11c-6.7-7.6-19-19.5-21.4-20.7v10.9zm.1-15.6c4.2 5.1 18.9 19.6 21.3 21v-10.4c-7.5-7.5-14.5-14.4-21.3-21.2v10.6zm0-47.1c7.4 7.4 14.4 14.3 21.3 21.2v-10.9c-5.2-6-18-18.4-19.9-19.5-1 3.2-1.2 6.6-1.4 9.2zm104 12.5c-.1-3.8.2-7.8-.1-10.7-6.1-6.1-11.5-11.4-17-16.9-1.7 1.7-3.8 3.4-5.6 6 7.7 7.2 15.2 14.4 22.7 21.6zM692 260.5c5.7 5.8 11.2 11.5 16.8 17.1.1.1.2.1.3 0 .1 0 .2-.1.5-.1 1.2-2.6 2.5-5.2 2.7-7.3-7.2-7.1-13.8-13.8-20.3-20.3v10.6zm-77.7-152.2c-1.3 2.4-2.2 5.3-2.8 8.3 6.4 6.4 12.7 12.6 19.3 19.1-.2-4 .2-7.6.6-10.4-6-6-11.5-11.5-17.1-17zm20.7 5c-5.3-5.2-10.3-10.2-15.4-15.2-1.5 2.2-2.9 4.6-3.8 6.7l16.4 16.4c1-2.6 1.9-5.4 2.8-7.9zm-8.4-24.2c-1.7 1.9-3.6 3.9-5.1 6.4 5.1 5 9.7 10.2 14.9 14.8 1.8-2.5 3.5-4.7 4.9-6.6-5-4.8-9.8-9.6-14.7-14.6zm-.1 213.5c2.2-1.9 4.2-3.7 5.9-5.2-7-6.9-13.8-13.6-20.4-20.1 2.7 9.5 7.8 18.1 14.5 25.3zm81.1-21.9-16.4-16.4c-.8 1.7-1.7 3.8-2.7 6 5 5 9.9 10.2 15.5 14.8 1.5-1.4 2.7-2.9 3.6-4.4zm5.2-154.9c-.9-7.6-3.9-13.6-9-18.5l-4.8 4.8c4.4 4.4 8.9 8.8 13.8 13.7zm-147.6 21.1h-50.7c-.8-.9-.4-1.9-.4-2.8 0-4.9.1-9.8-.1-14.8-.1-4.4-2.4-7.8-6.3-9.7-3.9-1.9-7.7-1.5-11.2 1-2.2 1.6-3.7 3.7-4.1 6.5-.3 1.8-.5 3.6-.5 5.4 0 13.2-.2 26.4 0 39.6.5 29.9.1 59.7.2 89.6 0 2.4 0 4.8 1.4 6.9 2.6 4 7.2 5.9 11.9 4.8 5-1.2 8.2-4.7 8.5-9.9.2-4.9.1-9.8.1-14.8 0-1.2-.3-2.4.3-3.7h50.2c.8.6.6 1.5.6 2.3 0 5.9.1 11.8 0 17.6-.4 14.9-5.5 28.1-15.1 39.5-10.3 12.1-23.2 19.6-38.9 21.9-20.4 2.9-38.5-2.4-53.7-16.7-14.1-13.3-20.1-29.9-20-49.1.2-33.3 0-66.7 0-100.1 0-11.4 0-22.8.1-34.2.4-28.6 22.3-54.7 50.3-60.2 23.4-4.5 43.4 2.2 60 19.1 11 11.2 16.4 24.9 17.2 40.4.5 7.1.2 14.1.2 21.4zM459.8 306.4c23 23.7 63.2 21.7 83-.4-5-4.8-9.9-9.6-15-14.5-17.4 14.1-35.2 13.9-53.1-.6-4.9 5.1-9.8 10.2-14.9 15.5zm32.6-187.7c7.2-5.9 14.4-5.6 21.6.3 4.4-5.1 9.3-9.4 13.9-14-13.6-15.7-40.2-16.3-50.8-1.5 5.1 5 10.1 10 15.3 15.2zm68.9 132.5c-7.3 6.8-14.3 13.2-21 19.5-1.5 6.9-4.8 12.4-9.3 17.4 5.2 5 10.2 9.7 15.3 14.7 3.2-3.3 5.8-7.2 8.1-11.4 6.9-12.4 7.8-25.9 6.9-40.2zM516 122.1c2.8 6 1.2 12.1 2 18.6 6.6-6.3 12.9-12.2 19.2-18.2-.8-5.6-2.7-10.6-6.3-14.1-5.1 4.7-9.9 9.1-14.9 13.7zm42.8 126.6h-37.7c6 6.1 12 11.4 18 17.2 6.5-5.7 12.9-11.2 19.7-17.2zm0-105.6c-6.8-6-13.1-11.5-19.5-17.2-6.1 5.7-12 11.3-18.3 17.2h37.8zM442.2 272.4c7.7 7.6 15.1 15 22.7 22.6 1.2-1.2 2.6-2.5 3.9-3.8.6-.6 1.3-1 1.4-1.3-9.8-9.8-19.3-19.3-28.8-28.7-.3.4 0 1.2 0 2 0 3.2.1 6.4.8 9.2zm20.8-6.1c-7.2-7.3-14-14.2-20.8-21.1-.1-.1-.2-.1-.3-.1h-.4v11.5c8.6 8.8 17.3 17.5 26.2 25.9-1.1-2.7-2.4-5.3-3-8.1-.7-2.7-1.2-5.5-1.7-8.1zm-.2-93.5c-6.6-7.4-19-19.4-21.4-20.8v11.3c7.2 7.1 14.3 14 21.4 21v-11.5zm.1 32.3c-7.7-7.6-14.7-14.6-21.5-21.4v11c7.1 6.9 13.8 14.2 21.5 21.4v-11zm-.1 41.4V235c-8.6-9.3-19.1-19.5-21.3-20.6v11c7.1 7 14 13.9 21.3 21.1zm-21.4-68.4c7.5 7.5 14.5 14.5 21.4 21.3v-11.2c-7.2-7-13.8-14.3-21.4-21.3v11.2zm.1 51.6v11.2c7.9 8.7 19.1 19.6 21.3 20.6v-11.1c-7.3-7-14.3-13.9-21.3-20.7zm21.4 1.1v-11.1c-4.1-4.8-19.4-19.9-21.4-21.1v10.9c7.3 7.2 14.2 14.1 21.4 21.3zM441.4 147l21.4 21.4v-10.8c-7.1-7.2-13.9-14.2-20.7-21.1-.1-.1-.2-.1-.3-.1-.1 0-.2.1-.4.1V147zm21.5-4.8-20.8-20.8c-1 3.4-.5 7.1-.6 9.8 7.6 7.5 14.6 14.5 21.5 21.4-.1-3.2-.1-6.9-.1-10.4zm-18-33.3c-1.2 2.7-2.1 5.7-2.3 8.3 7 7 13.7 13.6 20.3 20.2.2-3.6.2-7.6 0-10.6-6.2-6.2-12.1-12-18-17.9zm20.6 5.4c-5.5-5.6-10.7-10.7-15.8-15.9-1.3 2.1-2.6 4.6-3.3 6.8 6 5.9 11.6 11.6 17.2 17.1.4-2.7 1-5.7 1.9-8zm5.9-10.3c-3.2-4-13-13.6-15.2-14.8-1.8 1.9-3.3 4-4.5 5.9 5.2 5.2 10.3 10.2 15.4 15.4 1.1-2.2 2.6-4.4 4.3-6.5zm-28 174.5c2.4 9.2 6.5 17.4 13.1 24.5 2.1-2.3 4-4.3 5.6-5.9-6.2-6.1-12.4-12.4-18.7-18.6zM783.7 68.6h53.5c.2.2.2.3.3.4.1.1.2.2.2.3.1.4.2.7.2 1.1v200.4h53.5c.9 2.8 1.2 46 .5 54.1-.1.1-.2.2-.3.2-.1.1-.2.1-.3.2-.1 0-.2.1-.3.1-34.8 0-69.6 0-104.4.1-.8 0-1.7-.1-2.4-.1-.2-.2-.3-.2-.3-.3-.1-.1-.2-.2-.2-.3-.1-84.8-.1-169.6-.1-254.4-.1-.6 0-1.1.1-1.8zm100.6 252.8-21.2-21.2h-51.6c-5.9 5.1-19.1 18.7-20.7 21.2h93.5zM810.6 91.8c6.3-6.3 12.9-12.9 19.4-19.3h-38.7c6.4 6.5 13 13 19.3 19.3zm-23.3 10.1c7.4 7.4 14.3 14.3 21.2 21.1v-11.1c-3.9-4.7-18.9-19.4-21.2-20.8v10.8zm.1 139c7.3 7.2 14.3 14.1 21.3 21.1v-11c-5.3-6.3-19.2-19.7-21.3-20.7v10.6zm0-122.8c6.9 6.9 13.8 13.9 21.2 21.2v-12c-7.8-8.6-18.6-19.1-21.2-20.5v11.3zm0 143.3v10c7.4 7.3 14.3 14.2 21.1 20.9v-10c-7.4-7.3-14.3-14.1-21.1-20.9zm0-67.1c7.4 7.4 14.4 14.3 21.1 21v-9.8c-7.5-7.4-14.4-14.3-21.1-21v9.8zm-.1-31c7.5 7.4 14.4 14.3 21.2 21v-10.7c-8.4-9.2-18.8-19.3-21.2-20.5v10.2zm21.3 72.9c-7.4-7.3-14.3-14.2-21.1-21v9.7c7.4 7.4 14.4 14.3 21.1 21.1v-9.8zm-.1-128.4V96.3l-20.4-20.4c-.1-.1-.2 0-.3 0-.1 0-.2.1-.4.1v10.7c7.1 7.1 13.9 14 21.1 21.1zm0 50.1c-3.5-3.5-6.9-6.9-10.3-10.2-3.5-3.4-6.7-7-10.8-10.5v10.9c7.4 7.4 14.3 14.3 21.1 21v-11.2zm-21.1 21.8c4.5 5.2 18.9 19.4 21.2 20.7v-11.3c-7.5-8.4-18.8-19.3-21.2-20.4v11zm-.1 76.4c7.4 7.4 14.3 14.3 21.2 21.1v-10.6c-7.3-7.3-14.2-14-21.2-21-.2 3.6-.1 7.3 0 10.5zm21.3-113.3c-6.8-7.2-13.8-14.2-21.2-21.5V133c7.2 7.2 14.1 14.1 21.1 21 .3-3.6.2-7.4.1-11.2zm0 77c-3.5-3.5-6.9-6.9-10.4-10.2-3.5-3.4-6.6-7-10.8-10.4-.4 4.2-.3 7.8-.1 11.2 8.8 9.6 18.9 19.3 21.2 20.5.1-3.7.1-7.3.1-11.1zm-21.1 67.3 15.8 15.8c1.6-1.8 3.8-3.4 5-5.1-7.1-7.1-14-13.9-20.8-20.7v10zm7.4 23.6 5.4-5.4-13-13v10.6c2.7 2.8 5.2 5.3 7.6 7.8zm-1.5 1.8c-2.1-1.9-3.7-3.9-6.1-5.9.1 4.2-.4 7.8.3 11.4 1.9-1.8 3.7-3.5 5.8-5.5zm-585.5 12.8h-53.3c-.7-2.6-.9-252-.2-256.6h53.4l.3.3c.1.1.2.2.2.3.1 1.2.2 2.4.2 3.6 0 83.9-.1 167.7-.1 251.6 0 .1-.2.3-.5.8zm-26.2-233c6.6-5.7 18.2-17.8 19.2-19.8h-39l19.8 19.8zm-.2 209.7-19.4 19.4H201c-6.7-6.6-13.3-13.2-19.5-19.4zm-2.3-112.5c-6.3-7.2-19.1-19.6-21.3-20.6v11c5.8 6.6 19.4 19.9 21.3 20.7v-11.1zm-.1-45.5c-7.6-7.6-14.5-14.5-21.2-21.1v10.4c7.2 7.2 14.2 14.1 21.2 21V144zm.1 61.4-21.3-21.3v11.2c4.4 5.2 18.9 19.4 21.3 20.8v-10.7zM158 241.5c5.3 6.2 19 19.5 21.2 20.7v-10.3c-7.6-7.5-14.5-14.5-21.2-21.2v10.8zm21.2-102.6v-11.3c-6.9-6.9-13.7-13.7-20.4-20.5-.1-.1-.2-.1-.3-.1h-.4v10.8c7.2 7.2 14.1 14.2 21.1 21.1zm0 36c-7.6-7.5-14.5-14.5-21.3-21.2v10.9c4.9 5.7 19 19.5 21.3 20.7v-10.4zm-21.3-73c7.5 7.5 14.4 14.4 21.3 21.2V112l-21.3-21.3v11.2zm0 159.5v10.1c7.5 7.5 14.5 14.4 21.3 21.1v-10.1c-7.4-7.2-14.3-14.1-21.3-21.1zm.1-4.8c7.3 7.2 14.3 14 21.2 20.7v-9.8c-7.5-7.5-14.4-14.4-21.2-21.1v10.2zm-.1-56.7v9.7c7.5 7.5 14.5 14.5 21.3 21.2v-9.7c-7.4-7.3-14.3-14.2-21.3-21.2zm.1-112.7c7.2 6.9 14.3 13.8 21.3 20.6v-11c-5.5-6.3-19-19.5-21.3-20.7v11.1zm21.2 71.5c-5.6-6.5-18.8-19.4-21.2-20.9v11.3c6.4 7.1 18.7 19.2 21.2 20.7v-11.1zm0 87.7c.3-3.3.1-7 .1-9.5L158 215.6v9.6c7.4 7.5 14.3 14.4 21.2 21.2zm-21.3 30.4v10.6c5.4 5.3 10.4 10.4 15.6 15.6 1.6-1.9 3.4-3.9 4.9-5.7-6.5-6.6-13.4-13.5-20.5-20.5zm12.9 28.7c-4.4-4.3-8.7-8.7-12.8-12.7v10.8c2.6 2.5 4.9 5.2 7.3 7.1 2.1-2.1 4.1-3.9 5.5-5.2zm-7.1 7.2c-1.8-1.9-3.2-4-5.9-5.4v5.7c0 1.7-.2 3.4.4 5.6 2-2.2 4-3.7 5.5-5.9z" fill="currentColor"/></svg>