<svg xmlns="http://www.w3.org/2000/svg" viewBox="0 0 803.5 695.2" alt="wood and co logo"><path d="M803.5 347.6c-66.9 115.9-133.8 231.6-200.7 347.6H200.7C133.9 579.6 67.1 463.8 0 347.6 66.8 231.9 133.7 116.1 200.7 0h402.1c66.9 115.8 133.8 231.6 200.7 347.6zM214.6 671.3H589C648.9 567.6 708.7 464 768.8 359.9H563.2c-7.4 87.2-79.7 147-156.3 149.2-86.7 2.5-160.1-64.2-166.5-149-4.8-.8-201.2-.7-205.3.2 59.8 103.8 119.6 207.4 179.5 311zm-179.8-336c9.8.9 202.2.5 205.8-.3 7.6-83.7 74.5-146 156.3-148.8 36.9-1.3 70.7 9.2 100.4 31.3 39.3 29.4 61 69 65.8 117.6 6.1.9 201.7.7 205.6-.2C708.7 231 648.8 127.3 589 23.6H214.9c-60.1 103.9-120 207.5-180.1 311.7zm230.3 0h273.1c-2.2-53.4-47.7-118.2-124.3-124.6-83.5-7-143.9 57.3-148.8 124.6zm273 24.5c-1.4-.1-2.3-.2-3.3-.2-89.6 0-179.2.1-268.9.1-.1 0-.3.1-.4.2l-.3.3c4.6 68.4 68.6 132.6 151.1 124 74.3-7.6 119.8-71.3 121.8-124.4z" fill="currentColor"/><path d="M407.4 630.9h-14.5c-2.5-9.5-4.9-18.7-7.3-28.2-2.3 1.1-1.7 2.9-1.8 4.3-.4 7.5-.7 15-1.1 22.7-4.6 1.3-8.9-.1-13.2-.6-1-4 1.7-63.5 3.2-69.5 3.7 0 7.4-.1 11.1 0 2.3.1 4.5.5 6.8.6 9.6.3 16.6 7.2 16.7 17 0 4.1-.3 8.1-.9 12.2-.5 3.5-2.3 6.5-5.1 8.7-2 1.6-2 3.3-1.3 5.6 2.4 8 4.5 16 6.7 24 .3.9.4 1.8.7 3.2zm-21.5-56.8c-.4 4.9-.7 9.6-1.1 14.8 1.8 0 3.5.2 5-.1.9-.2 2.1-1.1 2.5-1.9 1.5-3.2 1.4-6.7.7-10-.2-1.1-1.8-2.2-3-2.7-1.1-.5-2.5-.1-4.1-.1zm195.2-110.8c3.3-6.1 6.3-12.1 9.8-17.8 4.1-6.6 11.1-8.9 18.8-6.6 3.1.9 6.2 2.1 9 3.7 5.4 3 9.3 7.2 10.4 14.1 10.5 1.8 21.2 3.7 32.5 5.6-2.6 4.7-4.8 9-7.1 13.2-9.9-1.8-19.3-3.6-28.7-5.4-.1.3-.3.7-.4 1 3.7 2.6 7.9 4.4 11.9 6.6 4 2.2 8 4.4 12.3 6.7-2.2 4.2-4.2 8-6.3 11.9-3.3-.6-55.4-28.2-62.2-33zm35.1-3.6c-2.3-4.1-5.9-5.5-9.6-6.9-2-.7-3.5-.3-4.6 1.3-.7 1-1.1 2.2-1.9 3.6 2.4 1.4 4.4 2.6 6.5 3.7 2.2 1.2 4.5 2.4 6.9 3.6 1-2.1 1.8-3.6 2.7-5.3zM439.9 628.3c-9.6 0-16.4-6.2-17.8-16.1-1.2-8.7-2.6-17.4-3.8-26.1-.5-3.4-.9-6.8-1.1-10.2-.5-7.7 4.2-16.5 16.1-18.5 8.7-1.4 17.3 4.4 19.4 13.5 1.4 5.9 2 11.9 2.9 17.8.9 5.8 1.5 11.6 2.6 17.4 2.3 12.4-5.7 22.2-18.3 22.2zm3.9-20.4c-1.2-8.2-2.3-16.6-3.6-24.9-.4-2.7-1-5.5-1.4-8.2-.3-2-1.6-2.7-3.4-2.8-2.9-.1-4.3 1.6-3.9 4.6 1.5 10.7 2.9 21.3 4.4 32 .2 1.3.5 2.6 1.1 3.8.8 1.5 2.3 2.4 4.1 1.8 1.5-.4 2.7-1.3 2.7-3.1v-3.2zM148 470c.2-6.8 3.4-11.9 9.2-15.1 10.6-5.8 21.3-11.4 32.1-16.9 11.9-6.1 25.7 1.7 26.4 16.4.3 7-3.3 12.5-9.7 15.9-7.2 3.8-14.5 7.6-21.7 11.3-3.3 1.7-6.6 3.6-10 5.3-14.2 6.9-26.8-5.3-26.3-16.9zm49.4-20.1c-10.6 5.6-21.3 11.1-32 16.8-1.4.7-2.4 2.1-3.4 3 2.3 5.4 3.1 5.7 7.8 3.4 5.1-2.6 10.2-5.2 15.2-7.9 4.6-2.4 9.3-4.8 13.8-7.4 3.3-1.8 3.4-4.6.6-7-.5-.3-1.2-.5-2-.9zm448-9.7c1.2-4.1 2.4-8.3 3.7-12.8 2 .4 3.8.9 5.7 1.2 2.6.5 3.8-.3 4.7-2.8.9-2.4.6-3.6-1.8-4.7s-4.9-2-7.4-2.4c-1.2-.2-2.9.6-3.8 1.5-2 1.9-3.8 4.1-5.4 6.3-5.3 7.1-12.4 8.7-20.5 6.3-3.4-1-6.8-2.6-9.6-4.6-7-5-8.7-14.3-4.7-22.5 4.1-8.2 14.1-11.6 20.2-9.3 2.1.8 4.3 1.3 7 2-1.3 4.4-2.5 8.6-3.9 13.3-1.7-.4-3.2-.7-4.7-1-3.9-.8-4.8-.3-6.6 3.9 1.4 3.2 4.4 4 7.4 4.7 1.8.4 3.2-.4 4.3-1.8 1.5-1.9 3.3-3.7 4.6-5.7 4.8-7 11.4-9 19.3-7.1 3.8.9 7.5 2.3 11 4 7.5 3.7 11 11.2 9.1 19.3-2.1 9.2-8.8 15-17.5 15.1-4.7 0-5.9-.3-11.1-2.9zM530.2 573.6c1.4 2.2 2.3 3.7 3.4 5.1 1.5 1.9 3.3 2.1 5.2 1 2.3-1.3 2.8-2.7 1.7-5.3-.7-1.6-1.6-3.2-2.6-4.7-2.3-3.5-3.2-3.6-7.4-3.1-4.6.6-9.3 2.6-14 .7-2.2-.9-4.6-1.8-6.4-3.3-5.3-4.5-8.6-10.5-9.1-17.4-.8-10.8 7.8-18 16.2-18.9 10-1.1 16.7 4.3 20.2 14-3.3 3-7.5 4.7-11.2 7.1-2.2-2.6-4.2-4.9-6.1-7.1-5 2-5.5 3.3-3.7 7.4 1.5 3.2 3.6 4.9 7.3 4.3 2.9-.5 5.8-.6 8.7-1.1 5.4-.9 10.1.5 13.6 4.6 4.7 5.4 8.5 11.3 9.1 18.6.2 2.4.1 5-.7 7.1-2.7 7.3-8.8 11-16.1 12-7 .9-12.8-1.9-16.8-7.9-1.2-1.7-2.2-3.6-3.5-5.9 4.2-2.5 8.1-4.8 12.2-7.2zm-14 33.5c-4.3 2.6-8.8 3.5-13.3 5.2-2.4-4-4.8-7.9-7.4-12.1-2.7.9-5.4 1.8-8.2 2.8.7 4.7 1.3 9.1 2 14.1-4.4 1.6-8.6 3.1-13.5 4.8-3.1-24.2-5.8-47.7-8.7-71.5 3.7-1.4 7.1-2.6 11-4 12.6 20.1 25.3 40.2 38.1 60.7zm41-113.4c7-8.6 13.7-16.8 20.8-25.5 3.6 3 7 5.7 10.6 8.6-3.9 4.8-7.5 9.4-11.5 14.4 3.6 3.1 7.1 6 10.8 9.1 3.5-4.2 6.8-8.2 10.4-12.4 3.5 2.8 6.8 5.4 10.5 8.4-3.4 4.3-6.5 8.4-9.9 12.7 3.7 3 7 5.8 10.8 9 3.9-4.7 7.8-9.3 11.9-14.3 3.7 3 7.2 5.8 11 9-7 8.6-13.7 16.8-20.8 25.4-18.3-14.8-36.2-29.5-54.6-44.4zM316.8 573c5 1.9 9.7 3.7 14.7 5.6-.7 4.5-2.7 8.4-4.4 12.9-5-1.8-9.9-3.6-15-5.4-1.7 4.4-3.3 8.8-5.1 13.3 5.8 2.2 11.4 4.3 17.4 6.6-1.7 4.5-3.2 8.7-5 13.3-10.3-3.8-20.3-7.6-30.8-11.5 8.2-22 16.3-43.7 24.5-65.8 10.5 3.4 20.4 7.4 30.8 11.3-1.6 4.4-3.1 8.4-4.8 12.7-5.8-2.1-11.3-4.1-17.3-6.3-1.5 4.3-3.1 8.5-5 13.3zm-25.2-10.4c-2.5 4.2-4.6 7.6-7 11.6-4.6-2.7-9-5.3-13.8-8.1-2.4 4-4.8 7.8-7.4 12.1 5.2 3.2 10.3 6.3 15.8 9.7-2.4 4-4.7 7.9-7.2 12.2-9.5-5.6-18.7-11.1-28.3-16.8 12.1-20.2 24.1-40.2 36.2-60.5 9.5 5.7 18.6 11.1 28.2 16.8-2.3 3.9-4.5 7.7-7 11.8-5.3-3.1-10.3-6.1-15.7-9.3-2.9 3.6-4.9 7.7-7.4 12 4.4 2.7 8.8 5.5 13.6 8.5zm-111.9-132c-1.4-4.7-2.5-8.8-3.8-13.2 1.4-.5 2.6-.8 3.8-1.3 1.2-.5 2.5-1 3.5-1.7 1.3-1 1.7-2.4 1-4s-2-2.2-3.6-1.8c-2.5.6-5.1 1.3-7.6 2.1-7.7 2.2-15.4 4.5-23.1 6.7-1.4.4-2.9.7-4.2 1.3-2.3.9-3.1 2.2-2.7 4 .5 2.1 1.9 2.9 4.6 2.5 1-.1 1.9-.5 2.8-.7.9-.2 1.9-.2 3.1-.3 1.2 4.2 2.4 8.2 3.6 12.2-8.5 5.2-17.6 3.2-22.4-1.3-10.3-9.5-7.3-25.3 6.1-29.5 11.4-3.6 22.9-6.8 34.4-10 2.2-.6 4.5-.8 6.7-1 6.8-.7 15.7 5.1 16.7 15.5.9 9-3.5 15.6-12 18.6-2.2.7-4.3 1.2-6.9 1.9zm53.5 108.9c-6.2 7-12.2 13.8-18.4 20.8-3.6-3.1-6.9-6-10.7-9.3 15.5-17.7 30.8-35.2 46.4-53.1 8.3 7.2 16.2 14.2 24.5 21.4-2.3 4-5.6 7-8.9 10.4-4.6-3.9-9-7.7-13.9-11.9-3.2 3.6-6.3 7-9.7 11 4 3.6 7.9 7.2 12 11-3 3.4-5.8 6.6-8.9 10.1-4.3-3.6-8.2-6.9-12.4-10.4zm-62.3-27.2c18.3-14.6 36.5-29.1 55-43.9 6.8 8.5 13.5 16.9 20.5 25.7-3.6 2.9-6.9 5.5-10.7 8.5-3.9-4.7-7.7-9.3-11.7-14.3-4 3.1-7.8 6.2-11.6 9.2 3.3 4.2 6.5 8.2 9.8 12.4-3.1 3.3-6.6 5.8-10.6 8.6-3.3-4-6.4-7.9-10-12.3-7.1 5.6-14.3 11.3-21.6 17-3.6-3.2-6-7.1-9.1-10.9zm421.7 44.6c-3.7 3.2-7 6.1-10.7 9.4-12.4-14.3-24.7-28.4-37.2-42.7-2.8 2.3-5.3 4.4-8.3 6.8-3-3.4-5.9-6.7-9-10.2 9.1-7.9 18-15.6 27.1-23.6 3 3.4 5.8 6.6 9 10.1-2.6 2.5-5.1 4.8-7.9 7.5 12.3 14.2 24.5 28.2 37 42.7zm-447.5-318c3.1-5.3 5.9-10 8.8-15.1 11.3 4.4 22 9.8 33.5 13.6-9.2-7.8-18.3-15.6-27.6-23.6 2.3-3.9 4.4-7.5 6.7-11.4 11.9 4.4 23.7 8.6 35.4 12.9.1-.2.2-.5.3-.7-9.8-7.3-19.6-14.5-29.9-22.2 3-5.1 5.8-9.9 8.9-15.3 23.4 18.8 46.3 37.3 69.5 55.9-2.7 4.5-5.1 8.7-7.8 13.3-12.9-4.8-25.4-9.6-38-14.3l-.3.6c10.3 8.6 20.5 17.2 31.1 26-2.6 4.4-5 8.6-7.7 13.3-27.7-10.7-55-21.9-82.9-33zm337.8-62.6c-5.4-1.6-9.8-2.9-14.7-4.4-1-13.4-2-26.5-2.9-39.7-.2 0-.3-.1-.5-.1-3.4 11.8-6.9 23.6-10.5 35.9-5.3-1.5-10.3-2.9-15.3-4.4 0-3.7 21.2-78.6 23.9-84.8 2.2.6 4.6 1.1 6.9 1.7 2.3.7 4.7 1.4 7.5 2.3 1.8 12.9 1.4 26.2 3.3 40.3 3.6-12.5 7-24.1 10.5-36.1 5.6 1 10.6 2.6 16.1 4.6-8.1 28.4-16.2 56.3-24.3 84.7zM301.5 89.1c5.4-1.6 10.3-3.2 15.3-4.6 3.1-.9 6.3-1.6 9.5-2.1 9.2-1.5 15.9 2.3 20.6 10 1.7 2.7 2.7 5.9 3.7 9 4 13.4 8.2 26.8 11.8 40.4 2.6 9.6-1.3 18.1-9.7 23.1-3.9 2.3-20.5 7.6-26 8.1-8.4-27.8-16.7-55.7-25.2-83.9zm36.9 64.2c1.3-.5 1.9-.7 2.5-.9 5.3-1.9 6.3-3.8 4.7-9.3-3.7-12.6-7.5-25.3-11.3-37.9-2.1-7.1-4.2-8.1-11-5.9-.2.1-.4.5-.8 1 5.2 17.5 10.5 35.1 15.9 53zm148.2 23.9c14.9-25.9 29.4-51 44-76.3 1.3.5 2.4.8 3.3 1.3 5 2.8 9.9 5.7 14.9 8.6 6.3 3.6 10.5 8.6 11.7 16.1.8 5.3-.6 10.1-3.1 14.6-5.3 9.6-10.8 19.1-16.3 28.6-2 3.4-3.8 6.9-6.1 10.1-1.9 2.6-4.1 5.2-6.7 7.1-5.9 4.3-12.5 5-19.1 2-7.6-3.7-14.8-7.9-22.6-12.1zm50.7-54.2c-9.3 16.2-18.5 32.1-27.7 48.1 6.4 4.5 8.9 4.1 12.5-1.9 6.7-11.4 13.3-22.9 19.8-34.4 3.5-6.2 2.5-7.7-3.1-11-.3-.2-.6-.3-1.5-.8zm-258.1 72.4c-.6 10.4-5.7 18-14.4 21.7-8.2 3.5-17.8 1.6-23.9-4.8-10.8-11.3-21.8-22.3-32.4-33.7-6.2-6.7-7.7-14.7-3.9-23.2 3.9-8.6 10.5-13.5 20.2-14 6.3-.3 11.6 1.8 15.9 6.3 11 11.3 21.9 22.6 32.8 34 3.8 4 5.3 9 5.7 13.7zm-22.9 7c1.7-1 3.3-1.6 4.3-2.7 2.5-2.7 2.3-4.7-.9-8-5.7-6.1-11.5-12.1-17.3-18.1-4.3-4.5-8.6-9-13-13.3-3.1-3-6.9-2.5-9 1.1-1.3 2.2-.9 4.5 1.4 7.1 6 6.3 12 12.5 18 18.8 4 4.1 7.9 8.3 12 12.3 1.2 1 2.9 1.7 4.5 2.8zm38.1-13.5c-6.7-.3-13.1-3.6-17.3-10.6-4.7-7.8-9.3-15.8-13.9-23.7-3.1-5.4-6.3-10.7-9.4-16.1-4.6-8.2-4.2-16.3 1.3-23.9 8.3-11.5 27.3-14.2 37 .7 4.4 6.7 8.2 13.8 12.3 20.7 3.3 5.6 6.6 11.3 9.9 16.9 2.1 3.7 4 7.5 4.4 11.8.9 11.8-8.7 23.9-24.3 24.2zm-19.6-67c-5.3-.1-8.2 4-6.4 7.9.5 1.2 1.2 2.3 1.9 3.4 6.5 11.1 13 22.3 19.5 33.4.7 1.3 1.5 2.6 2.4 3.7 1.7 1.9 3.9 2.1 6.2.9 3.7-2 4.4-4.6 2-8.6-5.7-9.9-11.5-19.7-17.3-29.6-1.7-2.8-3.2-5.7-5-8.4-1-1.2-2.6-2.1-3.3-2.7zm375 107.9c.3 8.6-3.7 15-11 19-13.8 7.5-27.7 14.9-41.8 21.8-11.2 5.5-23.4.8-29.1-10.3-4.3-8.5-3.8-22.5 8.8-29.3 13.7-7.4 27.4-14.7 41.3-21.6 13.1-6.5 28.2 1.2 31.3 15.5.4 1.6.3 3.3.5 4.9zM588.6 256c.9-.4 2.4-.9 3.8-1.7 11.5-6 23-12 34.4-18 1.5-.8 2.9-1.5 4.3-2.5 2.2-1.6 2.7-4.4 1.5-7-1.2-2.5-3.8-3.6-6.6-2.8-.9.3-1.8.7-2.7 1.1-12.1 6.3-24.1 12.6-36.2 18.9-1.2.6-2.3 1.2-3.3 2.1-1.9 1.6-2.3 3.7-1.3 6.2 1.1 2.6 2.9 3.9 6.1 3.7zM420.8 71.8c5.3 29.7 10.5 59 15.8 88.4h-16.8c-1-6.2-2-12.1-3-18.3h-12.1c-1.4 5.5-2.9 11.2-4.5 17.5-5.6-.4-10.9-.8-16.7-1.2 7.8-29 15.5-57.5 23.2-86.4h14.1zm-8.4 40.7c-.3 0-.6.1-.9.1-1 4.2-2 8.5-3 12.8h5.8c-.6-4.5-1.3-8.7-1.9-12.9zm191 89.6c-3.7-4.3-7.1-8.2-10.7-12.3 2.6-3.4 7.1-5 7.4-9.7-2.8-5.1-4.9-5.6-9.4-1.8-6.8 5.7-13.4 11.5-20.1 17.3-3.8 3.3-7.7 6.7-11.5 10-.7.6-1.6 1.2-2.2 2-2.1 2.3-2.2 4.2-.7 6.1 1.6 2 4.4 2.7 6.6 1.3 2.2-1.4 4.1-3.1 6.6-5 3.5 4.1 6.9 8 10.3 11.9-9.7 14.4-28.1 14.1-37 2.2-7-9.4-5.8-21.7 2.5-28.7 8.6-7.3 17.1-14.8 25.6-22.2 3.6-3.1 7.1-6.3 10.8-9.3 7-5.5 14.7-6.8 22.9-2.7 8.1 4.1 12.4 10.9 12.6 20.1.1 4.2-1.4 8-3.7 11.5-2.6 3.5-5.9 6.4-10 9.3zm-187.5 76.5h-11.5c-.4-1.9-.5-3.7-1.1-5.3-.3-.8-1.6-1.9-2.3-1.8-.9.1-2.1 1.1-2.3 2-.4 1.5-.1 3.2-.1 5.1 2 .9 3.9 1.9 5.8 2.7 9.7 3.9 12.9 9.6 11.3 20-.1.8-.3 1.6-.5 2.4-1.2 8.7-7.5 11.9-13.7 12.1-7.5.3-13.5-4.2-15.2-11.3-.3-1.3-.6-2.6-.6-3.9-.1-1.3.1-2.6.2-4.1h12c.3 2.2.5 4.3.7 6.4.7.3 1.3.7 1.9.7.8 0 1.6-.3 2.5-.5.2-.9.3-1.7.4-2.5.7-5.9.4-6.7-5.2-8.8-10-3.7-12.3-8.3-11.7-18.8.4-8 6.3-13.8 14.3-14 7.7-.2 14.3 5.5 15.1 13.2.2 1.9 0 3.9 0 6.4zM369 303.1h13.6c.6 4.1.4 7.8.2 11.4-3.8 1-20.2 1.1-25.7.2v-54.4c3.2-1.1 17.7-1.4 25.4-.5 1 3.4.6 6.9.2 10.9h-13.6v10.4h11.3c.9 4 .7 7.7.2 11.8h-11.5c-.1 3.7-.1 6.7-.1 10.2zm69 11.9h-11.7c-1.3-3.4-.5-7-.6-10.5-.2-3.8 0-7.5 0-11.3v-21.8c-3-.3-5.5-.5-8.3-.7v-10.3c3.5-1 20.9-1.3 28.1-.4 1 3.4.6 6.9.3 10.8-2.6.2-4.9.3-7.8.5V315zm-40.6 91.6c0 5.2.1 10.5 0 15.7-.2 6.6-5 11.8-11.5 12.7-6.4.9-12.5-2.8-14.5-9-.4-1.4-.6-2.9-.6-4.3 0-10-.1-20 0-30 0-7.9 5.4-13.4 13.1-13.6 7.5-.2 13.5 5.8 13.6 13.7-.1 5-.1 9.9-.1 14.8zm-14.6-15.7c-.1 3.7-.1 7.2-.2 10.7 0 3.4-.1 6.9 0 10.3.2 3.4-.7 7 1 11.5.9-1.9 1.6-2.8 1.7-3.7.2-2.3.1-4.6.1-6.9v-18.2c.1-1.4.4-3.2-2.6-3.7zm76.4-11.7v10.9c-4.6 1.2-9.4-.1-14.2.8v6.5c1.1-.2 2-.4 3-.4 6.4-.2 11.1 4 11.4 10.3.2 5.1.2 10.2 0 15.3-.3 7.3-6.4 12.8-13.6 12.6-7.4-.1-12.9-5.7-12.9-13.2v-4.5c2.1-.1 4-.1 5.9-.2h5.6c.3 1.8.5 3.3.9 5.3.9-.6 2-1 2-1.4.3-4.1 1-8.4-.7-13-3.7 4.5-8.1 3.1-12.5 2.8v-31.8h25.1zm-104.3 43.1h10.6c.8 4.1.5 8.1.1 12.3-1.2.1-2.1.3-3.1.3h-22.7c-.6-4.6-1.2-8.8 1.1-13 4-7.2 7.7-14.4 11.6-21.6 1.6-3 1.8-6.1.7-10-2.2 2.6-.6 5.3-2 7.8-3.5.7-7.3.5-11.1 0-2.9-8.8 1.9-18.1 10.3-19.7 7.6-1.5 14.7 3.7 15.3 11.4.5 6.7-.2 13-3.9 18.8-2.4 4.2-4.4 8.8-6.9 13.7zm67.3 12.3h-11.8v-40.7c-2.7 1.7-4.6 3-7.2 4.7v-12.1c0-.5 0-1.2.3-1.4 3.1-2.3 5.6-5.7 9.7-6.2 2.9-.3 5.9-.1 8.7-.1 1.1 3.9 1.3 49.9.3 55.8z" fill="currentColor"/></svg>